<svg xmlns="http://www.w3.org/2000/svg" width="42.58" height="38.874" viewBox="0 0 42.58 38.874">
  <g id="Group_1" data-name="Group 1" transform="translate(-3710.638 -1688.055)">
    <path id="Path_5" data-name="Path 5" d="M3739.593,1690.76h4.509a.9.9,0,0,1,.9.9v12.624" fill="none" stroke="#fff" stroke-linejoin="round" stroke-width="2"/>
    <path id="Path_6" data-name="Path 6" d="M3730.575,1716.911H3712.54a.9.9,0,0,1-.9-.9v-24.347a.9.9,0,0,1,.9-.9h4.509" fill="none" stroke="#fff" stroke-linejoin="round" stroke-width="2"/>
    <circle id="Ellipse_15" data-name="Ellipse 15" cx="9.919" cy="9.919" r="9.919" transform="translate(3732.379 1706.09)" fill="none" stroke="#fff" stroke-linejoin="round" stroke-width="2"/>
    <line id="Line_1" data-name="Line 1" x2="33.365" transform="translate(3711.638 1697.974)" fill="none" stroke="#fff" stroke-linejoin="round" stroke-width="2"/>
    <path id="Path_7" data-name="Path 7" d="M3746.807,1711.5l-4.509,5.411-3.607-2.705" fill="none" stroke="#fff" stroke-linejoin="round" stroke-width="2"/>
    <line id="Line_2" data-name="Line 2" y2="5.411" transform="translate(3737.789 1688.055)" fill="none" stroke="#fff" stroke-linejoin="round" stroke-width="2"/>
    <line id="Line_3" data-name="Line 3" x2="15.33" transform="translate(3720.656 1690.76)" fill="none" stroke="#fff" stroke-linejoin="round" stroke-width="2"/>
    <line id="Line_4" data-name="Line 4" y2="5.411" transform="translate(3718.853 1688.055)" fill="none" stroke="#fff" stroke-linejoin="round" stroke-width="2"/>
    <line id="Line_5" data-name="Line 5" x2="2.705" transform="translate(3721.558 1702.483)" fill="none" stroke="#fff" stroke-miterlimit="10" stroke-width="2"/>
    <line id="Line_6" data-name="Line 6" x2="2.705" transform="translate(3726.067 1702.483)" fill="none" stroke="#fff" stroke-miterlimit="10" stroke-width="2"/>
    <line id="Line_7" data-name="Line 7" x2="2.705" transform="translate(3730.575 1702.483)" fill="none" stroke="#fff" stroke-miterlimit="10" stroke-width="2"/>
    <line id="Line_8" data-name="Line 8" x2="2.705" transform="translate(3735.084 1702.483)" fill="none" stroke="#fff" stroke-miterlimit="10" stroke-width="2"/>
    <line id="Line_9" data-name="Line 9" x2="2.705" transform="translate(3717.049 1706.991)" fill="none" stroke="#fff" stroke-miterlimit="10" stroke-width="2"/>
    <line id="Line_10" data-name="Line 10" x2="2.705" transform="translate(3721.558 1706.991)" fill="none" stroke="#fff" stroke-miterlimit="10" stroke-width="2"/>
    <line id="Line_11" data-name="Line 11" x2="2.705" transform="translate(3726.067 1706.991)" fill="none" stroke="#fff" stroke-miterlimit="10" stroke-width="2"/>
    <line id="Line_12" data-name="Line 12" x2="2.705" transform="translate(3730.575 1706.991)" fill="none" stroke="#fff" stroke-miterlimit="10" stroke-width="2"/>
    <line id="Line_13" data-name="Line 13" x2="2.705" transform="translate(3717.049 1711.5)" fill="none" stroke="#fff" stroke-miterlimit="10" stroke-width="2"/>
    <line id="Line_14" data-name="Line 14" x2="2.705" transform="translate(3721.558 1711.5)" fill="none" stroke="#fff" stroke-miterlimit="10" stroke-width="2"/>
    <line id="Line_15" data-name="Line 15" x2="2.705" transform="translate(3726.067 1711.5)" fill="none" stroke="#fff" stroke-miterlimit="10" stroke-width="2"/>
  </g>
</svg>
