<svg xmlns="http://www.w3.org/2000/svg" width="30.413" height="41.097" viewBox="0 0 30.413 41.097">
  <g id="Group_2" data-name="Group 2" transform="translate(-4146.617 -1898.307)">
    <path id="Path_8" data-name="Path 8" d="M4159.16,1909.1c-6.241,5.951-11.536,12.31-11.543,17.758,0,7.531,6.35,11.543,14.206,11.543s14.207-4.008,14.207-11.543c0-6.948-5.51-12-11.543-17.758" fill="none" stroke="#fff" stroke-miterlimit="10" stroke-width="2"/>
    <path id="Path_9" data-name="Path 9" d="M4164.487,1909.1c-.319.528-1.831.888-2.664.888a4.331,4.331,0,0,1-2.663-.888s-4-7.712-3.858-7.991c1.3-2.5,4-2.019,6.525-1.331a15.593,15.593,0,0,0,5.726.77C4167.613,1901.571,4164.487,1909.1,4164.487,1909.1Z" fill="none" stroke="#fff" stroke-miterlimit="10" stroke-width="2"/>
    <line id="Line_16" data-name="Line 16" x1="2.664" y1="0.888" transform="translate(4156.496 1908.216)" fill="none" stroke="#fff" stroke-miterlimit="10" stroke-width="2"/>
    <line id="Line_17" data-name="Line 17" y1="0.888" x2="2.664" transform="translate(4164.487 1908.216)" fill="none" stroke="#fff" stroke-miterlimit="10" stroke-width="2"/>
    <circle id="Ellipse_16" data-name="Ellipse 16" cx="2.664" cy="2.664" r="2.664" transform="translate(4155.608 1918.87)" fill="none" stroke="#fff" stroke-miterlimit="10" stroke-width="2"/>
    <path id="Path_10" data-name="Path 10" d="M4166.263,1931.3h0a2.664,2.664,0,0,1-2.664-2.664h0a2.664,2.664,0,0,1,2.664-2.664h0a2.663,2.663,0,0,1,2.663,2.664h0A2.663,2.663,0,0,1,4166.263,1931.3Z" fill="none" stroke="#fff" stroke-miterlimit="10" stroke-width="2"/>
    <line id="Line_18" data-name="Line 18" y1="12.43" x2="9.767" transform="translate(4157.384 1918.87)" fill="none" stroke="#fff" stroke-miterlimit="10" stroke-width="2"/>
  </g>
</svg>
