<svg xmlns="http://www.w3.org/2000/svg" width="42.63" height="35.288" viewBox="0 0 42.63 35.288">
  <g id="Group_4" data-name="Group 4" transform="translate(-3929.517 -1761.946)">
    <path id="Path_13" data-name="Path 13" d="M3942.562,1767.619l-5.029,1.347a.888.888,0,0,0-.645,1.012l2.238,12.663a1.77,1.77,0,0,0,.794,1.188l18.813,11.982a1.777,1.777,0,0,0,2.452-.544l9.539-14.978a1.776,1.776,0,0,0-.544-2.452l-18.813-11.981a1.772,1.772,0,0,0-1.413-.218l-5.063,1.357" fill="none" stroke="#fff" stroke-miterlimit="10" stroke-width="2"/>
    <path id="Path_14" data-name="Path 14" d="M3935.973,1775.345a6.217,6.217,0,1,1,6.016-2.83" fill="none" stroke="#fff" stroke-miterlimit="10" stroke-width="2"/>
    <line id="Line_24" data-name="Line 24" x2="2.996" y2="1.908" transform="translate(3940.491 1771.561)" fill="none" stroke="#fff" stroke-miterlimit="10" stroke-width="2"/>
    <text id="FREE" transform="matrix(0.843, 0.537, -0.537, 0.843, 3945.378, 1777.346)" fill="#fff" font-size="6.412" font-family="Montserrat-Bold, Montserrat" font-weight="700"><tspan x="0" y="0">FREE</tspan></text>
  </g>
</svg>
