<svg xmlns="http://www.w3.org/2000/svg" width="26.861" height="42.731" viewBox="0 0 26.861 42.731">
  <g id="Group_3" data-name="Group 3" transform="translate(-4005.443 -1755.386)">
    <path id="Path_11" data-name="Path 11" d="M4025.088,1775.92v-3.552h6.215l-12.43-15.982-12.43,15.982h5.327v16.87" fill="none" stroke="#fff" stroke-linejoin="round" stroke-width="2"/>
    <line id="Line_19" data-name="Line 19" y2="1.776" transform="translate(4011.77 1791.014)" fill="none" stroke="#fff" stroke-linejoin="round" stroke-width="2"/>
    <line id="Line_20" data-name="Line 20" y2="1.776" transform="translate(4011.77 1794.566)" fill="none" stroke="#fff" stroke-linejoin="round" stroke-width="2"/>
    <line id="Line_21" data-name="Line 21" y2="10.655" transform="translate(4007.33 1783.023)" fill="none" stroke="#fff" stroke-linejoin="round" stroke-width="2"/>
    <circle id="Ellipse_17" data-name="Ellipse 17" cx="2.664" cy="2.664" r="2.664" transform="translate(4017.985 1777.696)" fill="none" stroke="#fff" stroke-linejoin="round" stroke-width="2"/>
    <path id="Path_12" data-name="Path 12" d="M4028.64,1790.126h0a2.664,2.664,0,0,1-2.664-2.664h0a2.663,2.663,0,0,1,2.664-2.663h0a2.663,2.663,0,0,1,2.663,2.663h0A2.663,2.663,0,0,1,4028.64,1790.126Z" fill="none" stroke="#fff" stroke-linejoin="round" stroke-width="2"/>
    <line id="Line_22" data-name="Line 22" y1="12.43" x2="9.767" transform="translate(4019.761 1777.696)" fill="none" stroke="#fff" stroke-linejoin="round" stroke-width="2"/>
    <line id="Line_23" data-name="Line 23" y2="6.215" transform="translate(4025.088 1791.902)" fill="none" stroke="#fff" stroke-linejoin="round" stroke-width="2"/>
  </g>
</svg>
