<svg xmlns="http://www.w3.org/2000/svg" width="44.501" height="38.923" viewBox="0 0 44.501 38.923">
  <g id="Group_5" data-name="Group 5" transform="translate(-4455.575 -1764.959)">
    <path id="Path_15" data-name="Path 15" d="M4492.755,1773.559a18.462,18.462,0,0,0-33.391,10.861v.923h-1.846l4.615,6.462,3.692-6.462h-1.846v-.923a13.846,13.846,0,0,1,13.846-13.846" fill="none" stroke="#fff" stroke-miterlimit="10" stroke-width="2"/>
    <path id="Path_16" data-name="Path 16" d="M4462.9,1795.282a18.462,18.462,0,0,0,33.391-10.862v-.923h1.846l-4.615-6.461-3.693,6.461h1.847v.923a13.846,13.846,0,0,1-13.847,13.846" fill="none" stroke="#fff" stroke-miterlimit="10" stroke-width="2"/>
    <path id="Path_17" data-name="Path 17" d="M4484.308,1784.4a6.431,6.431,0,0,0-.179-1.487l1.814-1.047-1.846-3.2-1.81,1.045a6.457,6.457,0,0,0-2.615-1.51v-2.09h-3.693v2.1a6.453,6.453,0,0,0-2.589,1.514l-1.836-1.06-1.846,3.2,1.85,1.069a6.265,6.265,0,0,0,.01,2.967l-1.86,1.074,1.846,3.2,1.865-1.077a6.452,6.452,0,0,0,2.56,1.488v2.144h3.693v-2.133a6.436,6.436,0,0,0,2.586-1.484l1.839,1.062,1.846-3.2-1.823-1.052A6.506,6.506,0,0,0,4484.308,1784.4Z" fill="none" stroke="#fff" stroke-linejoin="round" stroke-width="2"/>
    <circle id="Ellipse_18" data-name="Ellipse 18" cx="2.769" cy="2.769" r="2.769" transform="translate(4475.056 1781.651)" fill="none" stroke="#fff" stroke-miterlimit="10" stroke-width="2"/>
  </g>
</svg>
